<svg xmlns="http://www.w3.org/2000/svg" xmlns:xlink="http://www.w3.org/1999/xlink" width="82" height="80" viewBox="0 0 82 80">
  <defs>
    <clipPath id="clip-path">
      <rect id="Rectangle_41" data-name="Rectangle 41" width="82" height="80" transform="translate(0 -0.268)" fill="#fff"/>
    </clipPath>
  </defs>
  <g id="Group_124" data-name="Group 124" transform="translate(0 0.268)" clip-path="url(#clip-path)">
    <path id="Path_42" data-name="Path 42" d="M7.716,66.872a2.651,2.651,0,0,1-2.572-3.189L12.86,32.819a2.574,2.574,0,0,1,2.572-1.955H74.588a2.552,2.552,0,0,1,2.495,3.189l-.617,2.572a27.84,27.84,0,0,1,4.4,3.575l1.209-4.81a7.713,7.713,0,0,0-5.509-9.419,7.635,7.635,0,0,0-1.975-.252H72.016V18A7.715,7.715,0,0,0,64.3,10.288H45.859a2.707,2.707,0,0,1-1.826-.746L36.754,2.263A7.714,7.714,0,0,0,31.3,0H7.716A7.715,7.715,0,0,0,0,7.716V64.3a7.724,7.724,0,0,0,7.716,7.716H37.988a27.575,27.575,0,0,1-2.135-5.144ZM5.144,7.716A2.573,2.573,0,0,1,7.716,5.144H31.3a2.685,2.685,0,0,1,1.826.746l7.279,7.279a7.718,7.718,0,0,0,5.453,2.263H64.3A2.571,2.571,0,0,1,66.872,18V25.72H15.432a7.717,7.717,0,0,0-7.484,5.838L5.144,42.8ZM61.728,79.732A20.576,20.576,0,1,0,41.152,59.156,20.575,20.575,0,0,0,61.728,79.732M49.619,59.886a2.571,2.571,0,0,1,3.637-.015l.015.015,5.89,5.916V46.28a2.572,2.572,0,1,1,5.144,0V65.8l5.89-5.916a2.583,2.583,0,0,1,3.652,3.652L63.559,73.826a2.571,2.571,0,0,1-3.637.015l-.015-.015L49.619,63.538A2.571,2.571,0,0,1,49.6,59.9l.015-.015" fill="#fff"/>
  </g>
</svg>
