<svg xmlns="http://www.w3.org/2000/svg" xmlns:xlink="http://www.w3.org/1999/xlink" width="137.504" height="64.452" viewBox="0 0 137.504 64.452">
  <defs>
    <clipPath id="clip-path">
      <rect id="Rectangle_97" data-name="Rectangle 97" width="137.504" height="64.452" fill="none"/>
    </clipPath>
  </defs>
  <g id="Group_235" data-name="Group 235" clip-path="url(#clip-path)">
    <path id="Path_44" data-name="Path 44" d="M17.1,11.236a75.853,75.853,0,0,1-5.938,13.83,1.922,1.922,0,0,1-1.841.977c-1.128,0-1.616-.338-1.954-1.015A68.611,68.611,0,0,1,2.18,11.537,54.121,54.121,0,0,1,0,1.466C0,.489.94,0,2.142,0c.94,0,1.2.526,1.353,1.466.413,2.33.939,4.96,1.616,7.591a79.61,79.61,0,0,0,4.209,12.7,82.27,82.27,0,0,0,4.7-12.214c.752-2.555,1.466-5.261,2.1-8.079C16.348.489,16.648,0,17.512,0c1.2,0,2.1.451,2.1,1.39,0,1.353-1.052,5.337-2.518,9.846" fill="#fff"/>
    <path id="Path_45" data-name="Path 45" d="M66.117,26.105c-1.2,0-1.729-.451-1.729-1.578V1.641C64.388.476,64.952.1,66.117.1s1.766.376,1.766,1.541V24.527c0,1.128-.6,1.578-1.766,1.578" transform="translate(-40.074 -0.062)" fill="#fff"/>
    <path id="Path_46" data-name="Path 46" d="M100.586,7.5a66.814,66.814,0,0,1-5.975,7.027c-4.247,4.4-5.449,6.088-6.126,8.23h11.65a1.556,1.556,0,0,1,1.766,1.767,1.544,1.544,0,0,1-1.766,1.728H86.719a1.857,1.857,0,0,1-2.029-1.879,10.447,10.447,0,0,1,1.766-5.148,42.434,42.434,0,0,1,5.637-6.839c3.382-3.457,5.637-6.389,6.313-8.192H87.358c-1.2,0-1.8-.564-1.8-1.728A1.583,1.583,0,0,1,87.358.7h12.664a2.03,2.03,0,0,1,2.293,2.1,8.539,8.539,0,0,1-1.729,4.7" transform="translate(-52.709 -0.433)" fill="#fff"/>
    <path id="Path_47" data-name="Path 47" d="M154.83,26.1c-.827,0-1.165-.451-1.39-1.315-.451-1.954-1.09-4.1-1.691-6.088H141.6c-.751,2.443-1.315,4.322-1.8,6.088-.225.9-.563,1.315-1.39,1.315-1.2,0-2.067-.489-2.067-1.353a7.848,7.848,0,0,1,.413-2.1c.526-2.029,1.2-4.059,1.992-6.5A103.33,103.33,0,0,1,144.8,1.339,1.876,1.876,0,0,1,146.826.1h.038c1.09,0,1.466.451,1.954,1.39a101.729,101.729,0,0,1,5.749,14.581c.79,2.518,1.5,4.773,1.992,6.839a8.019,8.019,0,0,1,.338,1.729c0,1.09-1.09,1.466-2.067,1.466M146.75,4.383a100.479,100.479,0,0,0-4.134,11.011h8.155A98.566,98.566,0,0,0,146.75,4.383" transform="translate(-84.856 -0.062)" fill="#fff"/>
    <path id="Path_48" data-name="Path 48" d="M222.284,24.564c0,1.127-.526,1.541-1.729,1.541-1.09,0-1.578-.413-1.578-1.541V5.511H218.9l-6.088,10.861a2.054,2.054,0,0,1-1.992,1.277,2,2,0,0,1-1.954-1.24l-6.05-10.785h-.075v18.94c0,1.127-.489,1.541-1.616,1.541-1.2,0-1.691-.413-1.691-1.541V2.467c0-1.39.564-2.367,2.1-2.367a2.247,2.247,0,0,1,2.293,1.466l7.027,12.627,7.065-12.7A2.223,2.223,0,0,1,220.179.1c1.541,0,2.1.977,2.1,2.367Z" transform="translate(-124.125 -0.062)" fill="#fff"/>
    <path id="Path_49" data-name="Path 49" d="M278.862,15.958v8.568c0,1.127-.6,1.578-1.766,1.578s-1.729-.451-1.729-1.578V15.958c-3.382-3.232-6.764-9.809-6.764-14.28,0-1.2.6-1.578,1.766-1.578,1.128,0,1.616.413,1.691,1.428A19.072,19.072,0,0,0,277.1,13.064,20.338,20.338,0,0,0,282.62,1.677c.113-1.24.6-1.578,1.729-1.578,1.165,0,1.766.413,1.766,1.578,0,4.247-3.608,10.823-7.253,14.28" transform="translate(-167.173 -0.062)" fill="#fff"/>
    <path id="Path_50" data-name="Path 50" d="M337.966,25.879h-9.357a2.758,2.758,0,0,1-3.081-2.894V1.753c0-1.2.564-1.653,1.766-1.653s1.728.451,1.728,1.653V21.971a.535.535,0,0,0,.526.6h8.418c1.428,0,1.879.526,1.879,1.616,0,1.2-.488,1.691-1.879,1.691" transform="translate(-202.602 -0.062)" fill="#fff"/>
    <path id="Path_51" data-name="Path 51" d="M343.381,1.621H342.4V5.46c0,.3-.163.414-.464.414s-.44-.113-.44-.414V1.621h-.978c-.314,0-.44-.138-.44-.414,0-.3.125-.414.44-.414h2.86c.326,0,.427.113.427.414,0,.276-.1.414-.427.414m5.332,4.252c-.3,0-.414-.1-.414-.414V2.273h-.025l-.928,1.656a.52.52,0,0,1-.477.3.51.51,0,0,1-.5-.3l-.9-1.618h-.025V5.46c0,.313-.125.414-.427.414s-.439-.1-.439-.414V1.333c0-.326.125-.565.514-.565a.54.54,0,0,1,.527.326l1.254,2.2,1.267-2.208a.551.551,0,0,1,.514-.314c.389,0,.514.238.514.565V5.46c0,.313-.138.414-.451.414" transform="translate(-211.661 -0.478)" fill="#fff"/>
    <path id="Path_52" data-name="Path 52" d="M7.586,81.589H4.1c-.206,0-.3.169-.3.393v3.543H6.912c.619,0,.862.206.862.768,0,.525-.244.75-.862.75H3.8V92.16c0,.525-.281.768-.825.768-.563,0-.844-.225-.844-.75V81.664c0-.956.431-1.593,1.462-1.593H7.586c.619,0,.844.206.844.75s-.225.768-.844.768" transform="translate(-1.327 -49.835)" fill="#fff"/>
    <path id="Path_53" data-name="Path 53" d="M26.021,90.054c0,.506-.337.712-.825.712-.506,0-.825-.206-.825-.712V77.289c0-.525.319-.693.825-.693s.825.169.825.693Z" transform="translate(-15.169 -47.672)" fill="#fff"/>
    <path id="Path_54" data-name="Path 54" d="M42.289,97.994c-.525,0-.825-.187-.825-.693V96.57a2.554,2.554,0,0,1-2.381,1.5c-1.743,0-2.7-1.181-2.7-3.187V88.941c0-.525.3-.731.806-.731.525,0,.843.188.843.731v5.642c0,1.274.506,1.987,1.537,1.987,1.218,0,1.893-.956,1.893-2.549v-5.08c0-.525.319-.731.825-.731.525,0,.825.207.825.731v8.341c0,.525-.3.712-.825.712" transform="translate(-22.645 -54.9)" fill="#fff"/>
    <path id="Path_55" data-name="Path 55" d="M63.889,85.312H62.315v5.623c0,.693.206,1.2.862,1.2a1.836,1.836,0,0,0,.731-.187,1,1,0,0,1,.356-.075c.375,0,.619.431.619.806,0,.3-.206.488-.488.637a2.839,2.839,0,0,1-1.406.337c-1.481,0-2.324-.75-2.324-2.662V85.312h-.6c-.637,0-.843-.131-.843-.694,0-.525.168-.693.75-.693h.693V81.844c0-.544.262-.731.806-.731.581,0,.844.187.844.731v2.081h1.574c.525,0,.712.187.712.693,0,.525-.206.694-.712.694" transform="translate(-36.859 -50.483)" fill="#fff"/>
    <path id="Path_56" data-name="Path 56" d="M83.707,93.6H79.321c.075,1.874.881,2.868,2.305,2.868a3.3,3.3,0,0,0,1.5-.412,1.243,1.243,0,0,1,.619-.244.788.788,0,0,1,.675.787c0,.244-.169.488-.619.769a4.4,4.4,0,0,1-2.287.581c-2.549,0-3.88-1.818-3.88-4.874,0-3.168,1.406-5.061,3.73-5.061,2.286,0,3.393,1.65,3.393,4.33,0,.674-.225,1.256-1.05,1.256M79.34,92.136h3.768c-.037-1.668-.6-2.643-1.743-2.643-1.181,0-1.912.919-2.024,2.643" transform="translate(-48.318 -54.777)" fill="#fff"/>
    <path id="Path_57" data-name="Path 57" d="M113.957,97.14c0,.525-.281.731-.787.731-.525,0-.843-.188-.843-.731V91.48c0-1.218-.469-1.949-1.444-1.949-.956,0-1.743.656-1.743,2.549V97.14c0,.525-.319.731-.825.731-.525,0-.825-.206-.825-.731V91.48c0-1.237-.469-1.949-1.424-1.949-1.031,0-1.762.75-1.762,2.549V97.14c0,.525-.319.731-.825.731s-.825-.206-.825-.731V88.8c0-.525.3-.713.825-.713s.825.188.825.694v.675a2.432,2.432,0,0,1,2.268-1.443,2.23,2.23,0,0,1,2.268,1.593,2.6,2.6,0,0,1,2.493-1.593c1.705,0,2.624,1.162,2.624,3.13Z" transform="translate(-63.89 -54.777)" fill="#fff"/>
    <path id="Path_58" data-name="Path 58" d="M144.916,93.6H140.53c.075,1.874.881,2.868,2.306,2.868a3.3,3.3,0,0,0,1.5-.412,1.245,1.245,0,0,1,.619-.244.788.788,0,0,1,.675.787c0,.244-.168.488-.618.769a4.4,4.4,0,0,1-2.287.581c-2.549,0-3.88-1.818-3.88-4.874,0-3.168,1.406-5.061,3.73-5.061,2.287,0,3.393,1.65,3.393,4.33,0,.674-.225,1.256-1.049,1.256m-4.368-1.462h3.768c-.038-1.668-.6-2.643-1.743-2.643-1.181,0-1.912.919-2.024,2.643" transform="translate(-86.413 -54.777)" fill="#fff"/>
    <path id="Path_59" data-name="Path 59" d="M165.8,85.312h-1.575v5.623c0,.693.207,1.2.862,1.2a1.836,1.836,0,0,0,.731-.187,1,1,0,0,1,.356-.075c.375,0,.619.431.619.806,0,.3-.206.488-.488.637a2.839,2.839,0,0,1-1.406.337c-1.481,0-2.324-.75-2.324-2.662V85.312h-.6c-.637,0-.843-.131-.843-.694,0-.525.168-.693.75-.693h.694V81.844c0-.544.262-.731.806-.731.581,0,.843.187.843.731v2.081H165.8c.525,0,.712.187.712.693,0,.525-.206.694-.712.694" transform="translate(-100.286 -50.483)" fill="#fff"/>
    <path id="Path_60" data-name="Path 60" d="M185.7,97.871c-.544,0-.806-.187-.806-.656v-.637a2.377,2.377,0,0,1-2.249,1.368c-2.155,0-3.243-1.987-3.243-4.986,0-3.093,1.312-4.948,3.374-4.948a2.235,2.235,0,0,1,2.118,1.256v-.525c0-.412.225-.637.825-.637.543,0,.806.188.806.712V97.14c0,.544-.281.731-.825.731m-.806-5.679c0-1.631-.6-2.7-1.818-2.7-1.312,0-2.024,1.181-2.024,3.468,0,2.231.619,3.505,2.006,3.505,1.124,0,1.837-.937,1.837-2.7Z" transform="translate(-111.655 -54.777)" fill="#fff"/>
    <path id="Path_61" data-name="Path 61" d="M217.361,97.14c0,.525-.281.731-.787.731-.525,0-.843-.188-.843-.731V91.48c0-1.218-.469-1.949-1.444-1.949-.956,0-1.743.656-1.743,2.549V97.14c0,.525-.319.731-.825.731-.525,0-.825-.206-.825-.731V91.48c0-1.237-.469-1.949-1.424-1.949-1.031,0-1.762.75-1.762,2.549V97.14c0,.525-.319.731-.825.731s-.825-.206-.825-.731V88.8c0-.525.3-.713.825-.713s.825.188.825.694v.675a2.433,2.433,0,0,1,2.268-1.443,2.23,2.23,0,0,1,2.268,1.593,2.6,2.6,0,0,1,2.493-1.593c1.705,0,2.624,1.162,2.624,3.13Z" transform="translate(-128.247 -54.777)" fill="#fff"/>
    <path id="Path_62" data-name="Path 62" d="M245.959,97.947c-2.362,0-3.711-1.893-3.711-4.967,0-3.093,1.387-4.967,3.749-4.967,2.455,0,3.711,1.93,3.711,4.967,0,3.018-1.368,4.967-3.749,4.967m.019-8.453c-1.293,0-2.081,1.143-2.081,3.486,0,2.231.768,3.487,2.081,3.487s2.062-1.256,2.062-3.487-.712-3.486-2.062-3.486" transform="translate(-150.771 -54.778)" fill="#fff"/>
    <path id="Path_63" data-name="Path 63" d="M269.91,90.054c0,.506-.338.712-.825.712-.506,0-.825-.206-.825-.712V77.289c0-.525.319-.693.825-.693s.825.169.825.693Z" transform="translate(-166.961 -47.672)" fill="#fff"/>
    <path id="Path_64" data-name="Path 64" d="M2.957,139.077c-.525,0-.825-.206-.825-.75v-11.49c0-.544.3-.731.844-.731.525,0,.825.187.825.731v11.49c0,.543-.3.75-.844.75" transform="translate(-1.327 -78.486)" fill="#fff"/>
    <path id="Path_65" data-name="Path 65" d="M20.863,144.205c-.525,0-.844-.188-.844-.731v-5.623c0-1.162-.393-1.987-1.556-1.987-1.068,0-1.874.731-1.874,2.493v5.117c0,.525-.319.731-.825.731s-.825-.206-.825-.731v-8.341c0-.525.3-.713.825-.713s.825.188.825.694v.731a2.577,2.577,0,0,1,2.437-1.5c1.631,0,2.643,1.049,2.643,3.149v5.979c0,.525-.3.731-.806.731" transform="translate(-9.298 -83.614)" fill="#fff"/>
    <path id="Path_66" data-name="Path 66" d="M35,141.887a3.478,3.478,0,0,1-1.031-.169c-.356-.131-.563-.318-.563-.637,0-.375.225-.881.619-.881a1.349,1.349,0,0,1,.393.094,1.911,1.911,0,0,0,.506.075c.862,0,1.125-.581,1.125-1.575v-9.84c0-.525.3-.694.825-.694.506,0,.825.169.825.694v9.878c0,1.781-.825,3.055-2.7,3.055m1.874-15.52a.964.964,0,0,1-.956-.975.956.956,0,1,1,1.912,0,.964.964,0,0,1-.956.975" transform="translate(-20.792 -77.435)" fill="#fff"/>
    <path id="Path_67" data-name="Path 67" d="M57.252,139.932H52.866c.075,1.874.881,2.868,2.305,2.868a3.3,3.3,0,0,0,1.5-.412,1.244,1.244,0,0,1,.619-.244.788.788,0,0,1,.675.787c0,.244-.169.488-.619.769a4.4,4.4,0,0,1-2.287.581c-2.549,0-3.88-1.818-3.88-4.874,0-3.168,1.406-5.061,3.73-5.061,2.287,0,3.393,1.649,3.393,4.33,0,.675-.225,1.256-1.05,1.256m-4.367-1.462h3.768c-.037-1.668-.6-2.643-1.743-2.643-1.181,0-1.912.919-2.024,2.643" transform="translate(-31.853 -83.614)" fill="#fff"/>
    <path id="Path_68" data-name="Path 68" d="M81.349,135.639a.86.86,0,0,1-.731.825,1.038,1.038,0,0,1-.581-.225,2.285,2.285,0,0,0-1.331-.412c-1.331,0-2.249,1.087-2.249,3.467,0,2.437.9,3.505,2.193,3.505a2.457,2.457,0,0,0,1.443-.469.941.941,0,0,1,.544-.206.792.792,0,0,1,.712.787c0,.262-.206.488-.506.694a3.941,3.941,0,0,1-2.324.675c-2.231,0-3.711-1.725-3.711-4.986,0-3.205,1.631-4.948,3.936-4.948a3.5,3.5,0,0,1,2.249.694.746.746,0,0,1,.356.6" transform="translate(-46.559 -83.614)" fill="#fff"/>
    <path id="Path_69" data-name="Path 69" d="M99.929,131.645H98.355v5.623c0,.693.206,1.2.862,1.2a1.836,1.836,0,0,0,.731-.187,1.006,1.006,0,0,1,.356-.075c.375,0,.619.431.619.806,0,.3-.206.487-.488.637a2.839,2.839,0,0,1-1.406.337c-1.481,0-2.324-.75-2.324-2.661v-5.679h-.6c-.637,0-.843-.131-.843-.694,0-.525.168-.693.75-.693H96.7v-2.081c0-.544.262-.731.806-.731.581,0,.844.187.844.731v2.081h1.574c.525,0,.712.187.712.693,0,.525-.206.694-.712.694" transform="translate(-59.289 -79.32)" fill="#fff"/>
    <path id="Path_70" data-name="Path 70" d="M115.529,126.368a.964.964,0,0,1-.956-.975.956.956,0,1,1,1.912,0,.964.964,0,0,1-.956.975m-.019,11.659c-.525,0-.806-.206-.806-.731v-8.341c0-.525.3-.694.825-.694.506,0,.824.169.824.694V137.3c0,.525-.337.731-.843.731" transform="translate(-71.308 -77.435)" fill="#fff"/>
    <path id="Path_71" data-name="Path 71" d="M129.3,144.28c-2.362,0-3.711-1.893-3.711-4.967,0-3.093,1.387-4.967,3.749-4.967,2.455,0,3.711,1.93,3.711,4.967,0,3.018-1.368,4.967-3.749,4.967m.019-8.453c-1.293,0-2.081,1.143-2.081,3.486,0,2.231.768,3.487,2.081,3.487s2.062-1.256,2.062-3.487-.712-3.486-2.062-3.486" transform="translate(-78.167 -83.614)" fill="#fff"/>
    <path id="Path_72" data-name="Path 72" d="M157.527,144.205c-.525,0-.843-.188-.843-.731v-5.623c0-1.162-.394-1.987-1.556-1.987-1.068,0-1.874.731-1.874,2.493v5.117c0,.525-.319.731-.825.731s-.825-.206-.825-.731v-8.341c0-.525.3-.713.825-.713s.825.188.825.694v.731a2.577,2.577,0,0,1,2.437-1.5c1.631,0,2.643,1.049,2.643,3.149v5.979c0,.525-.3.731-.806.731" transform="translate(-94.355 -83.614)" fill="#fff"/>
    <path id="Path_73" data-name="Path 73" d="M304.657,78.978l-.759.5a.719.719,0,0,1-.4.164c-.181,0-.333-.273-.333-.47a.5.5,0,0,1,.256-.437l1.215-.809a.646.646,0,0,1,.4-.142c.389,0,.494.284.494.6v6.045h.9a.393.393,0,0,1,.446.448c0,.328-.161.459-.446.459h-2.771c-.294,0-.446-.131-.446-.459a.389.389,0,0,1,.446-.448h1Z" transform="translate(-188.685 -48.413)" fill="#fff"/>
    <path id="Path_74" data-name="Path 74" d="M317.355,85.467a2.043,2.043,0,0,1-2.1-2.208,2.069,2.069,0,0,1,1.053-1.88,1.807,1.807,0,0,1-.816-1.552,1.878,1.878,0,1,1,3.748-.022,1.818,1.818,0,0,1-.835,1.574,1.953,1.953,0,0,1,1.063,1.836,2.1,2.1,0,0,1-2.116,2.252m0-3.6A1.224,1.224,0,0,0,316.13,83.2a1.183,1.183,0,0,0,1.224,1.344A1.222,1.222,0,0,0,318.6,83.16a1.2,1.2,0,0,0-1.243-1.29m0-3.137a1.008,1.008,0,0,0-1,1.115.979.979,0,0,0,1,1.082.991.991,0,0,0,1.006-1.082,1.009,1.009,0,0,0-1.006-1.115" transform="translate(-196.21 -48.431)" fill="#fff"/>
    <path id="Path_75" data-name="Path 75" d="M336.7,82.206h-3.744c-.163,0-.277.15-.277.356v3.394h3.337c.586,0,.781.244.781.825,0,.525-.2.825-.781.825h-3.337v5.025c0,.544-.261.788-.749.788-.521,0-.765-.225-.765-.788V82.169c0-.956.423-1.613,1.416-1.613H336.7c.6,0,.781.225.781.807,0,.525-.162.844-.781.844" transform="translate(-206.108 -50.137)" fill="#fff"/>
    <path id="Path_76" data-name="Path 76" d="M293.621,92.322c-.5,0-.778-.585-1.037-1.586a25.8,25.8,0,0,1-.795-6.153,25.265,25.265,0,0,1,.881-6.474c.225-.83.5-1.246.967-1.246a.65.65,0,0,1,.725.661,2.507,2.507,0,0,1-.173.755,22.338,22.338,0,0,0-.864,6.285,23.131,23.131,0,0,0,.881,6.4,1.848,1.848,0,0,1,.155.68.678.678,0,0,1-.742.679" transform="translate(-181.605 -47.838)" fill="#fff"/>
    <path id="Path_77" data-name="Path 77" d="M353.934,90.963a22.246,22.246,0,0,0,.864-6.4,21.777,21.777,0,0,0-.847-6.285,2.522,2.522,0,0,1-.173-.755.65.65,0,0,1,.725-.661c.449,0,.726.415.967,1.246a23.01,23.01,0,0,1,.881,6.474,23.5,23.5,0,0,1-.864,6.38c-.259.887-.518,1.359-.967,1.359a.669.669,0,0,1-.743-.68,2.033,2.033,0,0,1,.156-.679" transform="translate(-220.185 -47.838)" fill="#fff"/>
  </g>
</svg>
